<?xml version="1.0" standalone="no"?>
<!DOCTYPE svg PUBLIC "-//W3C//DTD SVG 20010904//EN"
 "http://www.w3.org/TR/2001/REC-SVG-20010904/DTD/svg10.dtd">
<svg version="1.0" xmlns="http://www.w3.org/2000/svg"
 width="300.000000pt" height="168.000000pt" viewBox="0 0 300.000000 168.000000"
 preserveAspectRatio="xMidYMid meet">

<g transform="translate(0.000000,168.000000) scale(0.100000,-0.100000)"
fill="#000000" stroke="none">
<path d="M1270 1664 c0 -8 5 -12 10 -9 6 3 10 10 10 16 0 5 -4 9 -10 9 -5 0
-10 -7 -10 -16z"/>
<path d="M1310 1665 c0 -8 7 -15 15 -15 8 0 15 7 15 15 0 8 -7 15 -15 15 -8 0
-15 -7 -15 -15z"/>
<path d="M1355 1671 c-3 -5 -1 -12 5 -16 5 -3 10 1 10 9 0 18 -6 21 -15 7z"/>
<path d="M1847 1623 c-8 -32 -31 -130 -51 -218 -22 -98 -42 -164 -52 -171 -11
-9 -12 -13 -3 -16 8 -3 9 -9 4 -19 -5 -7 -9 -23 -10 -34 0 -16 -7 -20 -37 -20
-20 0 -43 -6 -50 -14 -11 -11 -5 -13 35 -8 42 4 47 3 41 -12 -3 -9 -8 -31 -9
-49 -4 -43 -10 -48 -30 -28 -20 20 -26 20 -51 0 -18 -14 -18 -14 5 -3 21 10
23 9 18 -4 -4 -11 -2 -14 7 -11 7 3 20 -1 27 -8 15 -15 183 -59 227 -60 15 0
76 11 135 26 122 29 147 32 147 14 0 -26 21 -88 30 -88 5 0 14 9 20 21 9 17 8
23 -7 34 -13 10 -15 17 -7 25 17 17 43 -13 37 -43 -6 -28 12 -67 30 -67 8 0 9
2 1 8 -25 16 10 183 35 168 4 -3 12 4 19 15 7 11 8 19 2 19 -5 0 -10 -5 -10
-12 0 -6 -6 -4 -13 6 -9 13 -28 18 -71 19 l-58 1 6 35 c9 57 78 342 82 338 2
-2 13 -58 24 -125 11 -67 23 -128 26 -135 3 -8 -12 -22 -38 -35 l-43 -22 58 6
c60 6 57 8 74 -46 4 -13 6 -12 14 3 14 25 33 21 100 -18 32 -19 59 -32 59 -29
0 2 -18 40 -40 84 -22 43 -37 86 -34 94 3 7 1 17 -5 21 -6 3 -11 17 -11 31 0
29 36 34 56 7 12 -16 12 -16 7 5 -4 17 -12 22 -39 22 -20 0 -34 5 -34 13 -1 6
-20 21 -42 32 -57 28 -91 92 -85 158 5 54 28 91 77 125 l33 22 -97 0 c-53 0
-96 -3 -96 -8 0 -4 4 -22 9 -40 11 -36 10 -37 -59 -21 -116 26 -121 28 -110
49 9 16 7 20 -6 20 -9 0 -22 -7 -29 -16 -10 -15 -16 -15 -74 0 -34 9 -77 16
-95 16 -31 0 -34 -2 -49 -57z m120 -18 c0 -8 -4 -15 -9 -15 -5 0 -6 -6 -2 -12
5 -10 4 -10 -5 -2 -6 6 -9 18 -5 27 8 21 21 22 21 2z m20 -27 c-3 -7 -5 -2 -5
12 0 14 2 19 5 13 2 -7 2 -19 0 -25z m35 5 c-3 -16 -7 -22 -10 -15 -4 13 4 42
11 42 2 0 2 -12 -1 -27z m50 -9 c8 15 12 16 19 5 13 -21 11 -41 -3 -32 -7 4
-21 8 -30 8 -10 0 -18 3 -18 8 0 37 2 40 11 17 10 -23 11 -24 21 -6z m61 0 c8
-8 -3 -34 -14 -34 -5 0 -9 9 -9 20 0 19 11 26 23 14z m30 -24 c-3 -11 -9 -20
-13 -20 -5 0 -6 9 -3 20 3 11 9 20 13 20 5 0 6 -9 3 -20z m41 -5 c-4 -8 -8
-15 -10 -15 -2 0 -4 7 -4 15 0 8 4 15 10 15 5 0 7 -7 4 -15z m-145 -50 c1 -12
-64 -14 -75 -3 -4 5 -14 -1 -22 -13 -8 -11 -20 -18 -27 -15 -7 2 -15 -5 -19
-17 -5 -20 -6 -20 -26 -2 -28 25 -25 38 6 31 22 -6 25 -4 19 14 -7 22 -5 23
19 14 14 -5 14 -9 4 -22 -11 -13 -10 -14 2 -10 9 3 14 16 13 32 -2 27 10 35
23 15 4 -8 9 -7 15 2 6 10 9 8 9 -8 0 -31 14 -29 30 5 12 25 13 26 21 7 4 -11
8 -24 8 -30z m49 7 c12 9 12 6 -2 -10 -26 -30 -33 -28 -27 11 4 26 6 28 9 9 3
-20 6 -21 20 -10z m43 -19 c10 -11 10 -14 2 -9 -8 4 -13 2 -13 -4 0 -6 -5 -8
-12 -4 -7 5 -9 2 -5 -9 4 -11 2 -14 -8 -11 -12 5 -12 10 3 30 21 28 17 27 33
7z m-129 -29 c-24 -17 -29 -43 -9 -63 10 -11 8 -12 -9 -3 -49 26 -56 66 -12
75 46 9 53 7 30 -9z m82 -23 c27 -29 28 -29 8 -40 -12 -6 -28 -11 -36 -11 -14
0 -14 3 -4 20 10 16 10 24 0 40 -18 30 0 24 32 -9z m71 9 c-5 -16 -3 -19 12
-14 16 5 16 4 -1 -10 -25 -21 -40 -20 -32 0 5 12 2 15 -11 10 -13 -4 -11 0 6
14 29 25 34 25 26 0z m38 -52 c3 -9 -5 -13 -24 -13 -34 0 -38 12 -6 18 12 2
23 5 23 6 1 0 4 -5 7 -11z m-203 -40 c0 6 5 12 12 12 9 0 9 -3 0 -12 -7 -7
-12 -19 -12 -27 0 -12 3 -12 12 -3 7 7 16 12 20 12 11 0 10 -28 -2 -35 -6 -4
-7 1 -4 12 5 16 4 16 -10 -1 -10 -13 -16 -15 -16 -7 0 10 -3 11 -14 2 -20 -17
-29 2 -14 34 8 18 14 22 20 13 6 -10 8 -10 8 0z m-68 -56 c9 -13 24 -17 55
-16 24 1 46 -2 49 -8 4 -6 9 -5 15 3 4 7 10 11 12 9 2 -3 -4 -18 -15 -35 -18
-28 -19 -28 -13 -5 5 23 5 23 -8 8 -13 -17 -15 -17 -23 3 -9 20 -10 20 -24 3
-14 -16 -13 -17 3 -11 9 3 17 2 17 -4 0 -12 -110 -2 -124 11 -10 10 19 60 34
60 5 0 15 -8 22 -18z m156 -58 c-25 -25 -42 -14 -22 14 12 17 19 21 27 13 8
-8 7 -16 -5 -27z m-205 -8 c9 -7 17 -19 16 -27 0 -11 -2 -11 -6 -1 -4 10 -8
10 -19 1 -8 -6 -14 -15 -14 -20 0 -10 36 -7 46 4 4 4 11 7 16 7 5 0 2 -7 -7
-16 -9 -9 -14 -23 -11 -31 3 -8 1 -11 -4 -8 -6 3 -10 12 -10 19 0 21 -32 13
-56 -13 -13 -16 -27 -22 -37 -18 -22 8 -22 37 1 36 10 0 12 -3 5 -6 -18 -7
-16 -23 2 -23 8 0 19 9 25 20 9 16 8 20 -5 20 -21 0 -29 24 -15 49 12 24 46
27 73 7z m61 -18 c-3 -4 -11 -5 -19 -1 -21 7 -19 12 4 10 11 0 18 -5 15 -9z
m58 -20 c-4 -17 -2 -20 12 -15 9 4 14 3 11 -2 -3 -5 -1 -12 5 -16 5 -3 10 -1
10 4 0 15 30 14 31 -1 1 -7 0 -24 -1 -38 -1 -14 2 -21 6 -17 5 5 9 26 10 47 1
32 -2 40 -20 43 -11 3 -4 4 16 3 36 -1 65 -26 31 -26 -9 0 -13 -3 -10 -6 3 -4
2 -15 -4 -25 -7 -13 -6 -19 1 -19 6 0 15 10 20 23 5 12 9 15 9 7 1 -20 -9 -32
-37 -48 -19 -10 -23 -10 -28 3 -3 8 -10 13 -14 10 -5 -3 -11 -1 -14 4 -3 5
-16 7 -27 4 -20 -6 -21 -3 -16 23 6 25 5 27 -6 11 -6 -10 -18 -26 -25 -35 -11
-15 -11 -15 -5 2 4 13 3 17 -5 12 -7 -4 -12 -14 -12 -22 0 -12 9 -14 44 -9 44
5 68 -6 45 -21 -8 -4 -9 -3 -5 4 10 16 -5 15 -42 -4 -33 -16 -72 -11 -72 9 0
8 3 8 12 -1 7 -7 19 -12 28 -12 12 1 11 3 -3 11 -14 8 -17 18 -12 36 4 18 2
23 -6 17 -7 -4 -4 7 7 25 l18 31 13 -23 c8 -15 12 -17 13 -6 0 12 18 39 26 39
1 0 0 -10 -4 -22z m-49 -203 c-4 -15 -36 -12 -41 3 -3 9 3 13 19 10 13 -1 23
-7 22 -13z"/>
<path d="M1986 1324 c-4 -9 -4 -19 -1 -22 2 -3 7 3 11 12 4 9 4 19 1 22 -2 3
-7 -3 -11 -12z"/>
<path d="M1900 1281 c-14 -27 -13 -31 10 -31 11 0 20 6 20 13 0 6 5 4 11 -6
11 -18 29 -14 29 6 0 9 -3 8 -8 -1 -6 -9 -12 -6 -20 13 -14 30 -28 32 -42 6z"/>
<path d="M2087 1253 c-4 -3 -7 -11 -7 -17 0 -6 5 -5 12 2 6 6 9 14 7 17 -3 3
-9 2 -12 -2z"/>
<path d="M1832 1218 c-17 -17 -15 -41 3 -34 8 3 15 1 15 -5 0 -6 9 -1 19 12
11 13 17 27 14 31 -7 12 -38 9 -51 -4z"/>
<path d="M1957 1174 c-11 -11 -8 -26 3 -19 6 3 10 1 10 -6 0 -7 3 -10 6 -6 3
3 2 13 -3 22 -5 8 -12 12 -16 9z"/>
<path d="M2024 1152 c3 -5 0 -13 -6 -15 -9 -4 -10 -6 -1 -6 17 -1 25 16 12 25
-7 4 -9 3 -5 -4z"/>
<path d="M2054 1145 c-9 -22 1 -29 15 -11 8 10 9 16 1 21 -5 3 -13 -1 -16 -10z"/>
<path d="M2594 1658 c21 -13 47 -39 57 -58 21 -39 25 -120 8 -152 -11 -20 -9
-20 27 -13 22 4 41 8 43 10 2 2 -2 35 -9 72 -19 112 -20 143 -5 143 9 0 12 -6
9 -17 -5 -15 -4 -16 5 -3 17 25 -3 33 -91 37 l-83 4 39 -23z"/>
<path d="M2910 1670 c-8 -5 -12 -11 -9 -14 2 -3 11 -1 19 4 8 5 12 11 9 14 -2
3 -11 1 -19 -4z"/>
<path d="M1664 1653 c3 -8 2 -12 -3 -9 -5 3 -14 -1 -21 -9 -11 -13 -10 -14 4
-9 9 4 16 2 14 -3 -4 -11 56 -73 71 -73 15 0 14 -17 -1 -23 -10 -4 -10 -7 -1
-18 17 -17 24 -8 30 40 6 43 -5 53 -28 25 -12 -14 -14 -13 -21 7 -7 18 -5 27
9 36 16 12 16 14 0 30 -21 21 -60 25 -53 6z"/>
<path d="M1806 1662 c-3 -5 1 -9 9 -9 8 0 12 4 9 9 -3 4 -7 8 -9 8 -2 0 -6 -4
-9 -8z"/>
<path d="M2801 1657 c-6 -8 -7 -18 -3 -22 4 -5 2 -5 -5 -1 -6 3 -19 -4 -27
-16 -17 -24 -21 -48 -8 -48 12 0 92 77 92 89 0 16 -35 14 -49 -2z"/>
<path d="M2943 1659 c-16 -16 -5 -39 21 -40 11 0 15 -3 9 -6 -18 -7 -16 -28 2
-43 18 -15 31 -7 19 12 -4 7 -9 21 -9 31 -1 10 -6 22 -12 25 -5 4 -12 13 -14
20 -3 10 -7 10 -16 1z"/>
<path d="M968 1653 c7 -3 16 -2 19 1 4 3 -2 6 -13 5 -11 0 -14 -3 -6 -6z"/>
<path d="M1395 1650 c-17 -6 -14 -9 18 -15 38 -7 70 6 53 22 -4 4 -12 1 -17
-7 -8 -11 -12 -12 -16 -2 -5 14 -10 14 -38 2z"/>
<path d="M1577 1653 c-4 -3 -7 -11 -7 -17 0 -6 5 -5 12 2 6 6 9 14 7 17 -3 3
-9 2 -12 -2z"/>
<path d="M951 1619 c0 -13 3 -19 5 -13 3 7 15 10 27 8 12 -2 15 -1 7 2 -8 4
-21 11 -27 17 -10 7 -13 3 -12 -14z"/>
<path d="M2890 1631 c0 -5 6 -11 13 -14 8 -3 14 1 14 9 0 8 -6 14 -14 14 -7 0
-13 -4 -13 -9z"/>
<path d="M1810 1620 c0 -5 4 -10 9 -10 6 0 13 5 16 10 3 6 -1 10 -9 10 -9 0
-16 -4 -16 -10z"/>
<path d="M778 1613 c7 -3 16 -2 19 1 4 3 -2 6 -13 5 -11 0 -14 -3 -6 -6z"/>
<path d="M1605 1610 c3 -5 8 -10 11 -10 2 0 4 5 4 10 0 6 -5 10 -11 10 -5 0
-7 -4 -4 -10z"/>
<path d="M2501 1603 c0 -10 4 -27 9 -38 7 -16 9 -14 7 13 -1 19 -5 36 -9 38
-4 3 -8 -3 -7 -13z"/>
<path d="M1630 1596 c0 -23 16 -27 17 -5 1 10 -2 19 -8 19 -5 0 -9 -6 -9 -14z"/>
<path d="M1286 1584 c-4 -9 -4 -19 -1 -22 2 -3 7 3 11 12 4 9 4 19 1 22 -2 3
-7 -3 -11 -12z"/>
<path d="M1204 1559 c-15 -30 -15 -30 5 -19 12 6 21 16 21 23 0 7 4 6 10 -3 8
-13 10 -13 10 1 0 31 -29 30 -46 -2z"/>
<path d="M2412 1555 c0 -11 3 -29 7 -40 7 -17 8 -17 13 7 3 15 2 25 -3 23 -4
-3 -10 3 -12 12 -4 15 -5 15 -5 -2z"/>
<path d="M0 1530 c0 -5 5 -10 11 -10 5 0 7 5 4 10 -3 6 -8 10 -11 10 -2 0 -4
-4 -4 -10z"/>
<path d="M2391 1533 c-1 -6 -4 -20 -7 -30 -5 -17 -5 -17 6 0 6 10 9 23 6 30
-3 9 -5 9 -5 0z"/>
<path d="M1245 1519 c-4 -6 -4 -13 -1 -16 3 -4 6 -1 6 6 0 22 20 1 21 -22 0
-21 1 -21 9 -2 12 28 12 37 0 30 -5 -3 -10 -1 -10 4 0 14 -17 14 -25 0z"/>
<path d="M2510 1519 c0 -5 5 -7 10 -4 6 3 10 8 10 11 0 2 -4 4 -10 4 -5 0 -10
-5 -10 -11z"/>
<path d="M1301 1504 c0 -11 3 -14 6 -6 3 7 2 16 -1 19 -3 4 -6 -2 -5 -13z"/>
<path d="M2945 1510 c-3 -6 1 -7 9 -4 18 7 21 14 7 14 -6 0 -13 -4 -16 -10z"/>
<path d="M1185 1499 c4 -5 2 -9 -3 -9 -22 0 -18 -26 5 -37 24 -12 25 -11 9 6
-15 16 -15 19 -1 31 12 10 15 9 15 -6 0 -16 2 -16 10 -4 11 17 9 19 -19 25
-12 2 -19 0 -16 -6z"/>
<path d="M2551 1500 c0 -8 4 -24 9 -35 l9 -20 0 20 c0 11 -4 27 -9 35 -9 13
-10 13 -9 0z"/>
<path d="M2570 1503 c0 -5 5 -15 10 -23 8 -12 10 -11 10 8 0 12 -4 22 -10 22
-5 0 -10 -3 -10 -7z"/>
<path d="M697 1483 c-15 -14 -6 -33 17 -33 39 0 49 -22 41 -90 -4 -33 -11 -58
-15 -55 -4 3 -13 -2 -20 -10 -18 -21 -54 -18 -76 6 l-19 21 -6 -24 c-4 -12 -7
-38 -8 -57 -1 -27 2 -31 12 -22 8 6 16 8 20 5 3 -3 8 4 12 15 8 25 21 26 64 5
29 -15 31 -19 24 -48 -4 -17 -8 -47 -7 -66 l0 -35 -51 3 c-65 5 -85 -13 -60
-52 11 -17 27 -26 44 -26 39 0 52 -13 50 -51 -1 -19 2 -42 6 -51 16 -40 -13
-13 -59 53 -28 39 -54 72 -58 75 -24 15 41 -90 66 -108 7 -5 7 -8 1 -8 -5 0 1
-7 13 -16 24 -17 29 -39 10 -50 -6 -4 -8 -3 -5 3 4 6 -2 18 -12 27 -14 13 -20
14 -29 4 -16 -21 -19 -61 -3 -66 8 -3 11 0 7 7 -4 6 -3 11 3 11 5 0 12 -6 14
-12 4 -10 6 -10 6 0 1 11 4 10 16 -1 8 -9 24 -13 36 -10 16 4 17 8 7 14 -10 7
-10 9 0 9 6 0 12 7 12 15 0 8 7 15 14 15 13 0 13 -5 0 -36 -8 -20 -10 -33 -5
-29 6 3 11 1 11 -4 0 -6 -4 -11 -9 -11 -5 0 -6 -10 -3 -22 5 -22 6 -21 13 5 4
16 5 36 2 44 -4 10 -2 14 4 10 6 -4 14 -1 16 5 4 8 8 4 12 -9 9 -28 31 -30 40
-3 4 11 11 18 16 15 5 -4 9 -1 9 5 0 7 7 9 16 6 8 -3 12 -2 9 4 -7 11 -61 7
-73 -5 -4 -5 -1 -5 6 -1 14 8 17 -20 3 -28 -10 -6 -21 16 -21 41 0 14 13 15
91 10 99 -6 98 -7 44 49 -11 11 -25 29 -32 40 -11 17 -12 16 -12 -13 -1 -22
-6 -33 -16 -33 -8 0 -15 8 -15 18 0 9 -9 28 -19 42 -12 15 -19 19 -19 10 1 -8
0 -27 0 -42 -2 -26 -4 -27 -44 -22 -24 4 -44 7 -46 9 -2 1 -5 18 -8 36 -8 46
10 89 36 89 14 0 19 4 14 12 -5 7 -3 8 5 4 9 -6 8 -12 -4 -26 -18 -20 -13 -40
11 -40 9 0 14 10 14 28 0 23 4 28 24 27 13 0 28 -3 32 -7 4 -5 16 -8 26 -8 13
0 18 -8 19 -27 0 -17 3 -22 6 -13 9 21 35 39 55 36 49 -7 63 -64 27 -110 -15
-19 -17 -26 -6 -26 8 0 22 -10 33 -22 10 -12 13 -18 7 -14 -7 4 -13 2 -13 -3
0 -7 23 -11 54 -11 30 0 62 -3 70 -6 14 -5 15 -2 8 17 -5 13 -7 30 -4 38 3 10
-1 12 -17 8 -18 -4 -20 -3 -10 9 6 8 17 14 23 14 7 0 13 22 14 59 l2 58 -35 6
c-20 3 -47 1 -60 -5 -19 -8 -27 -7 -40 5 -13 14 -15 30 -9 102 4 47 4 85 0 85
-3 0 -15 -15 -26 -32 l-20 -33 0 33 c0 54 -17 36 -50 -52 l-32 -83 -69 1 c-52
1 -66 4 -54 11 9 6 24 16 33 23 15 11 12 12 -17 6 l-34 -6 7 42 c4 23 14 56
24 74 l17 31 3 -27 c2 -16 8 -28 14 -28 6 0 8 12 3 33 -4 17 -8 71 -9 120 -1
61 -6 91 -16 101 -17 16 -83 30 -93 19z m262 -353 c4 0 15 15 24 33 l18 32 -6
-34 c-3 -18 -5 -44 -5 -57 0 -21 -5 -24 -40 -24 -22 0 -40 3 -40 6 0 4 8 29
18 56 16 48 17 49 20 19 2 -17 7 -31 11 -31z m151 -80 c0 -5 -7 -10 -16 -10
-8 0 -12 5 -9 10 3 6 10 10 16 10 5 0 9 -4 9 -10z m-36 -26 c9 -24 7 -61 -6
-89 -14 -31 -42 -35 -33 -4 5 16 4 20 -6 15 -8 -4 -6 -1 5 8 14 12 17 23 12
50 -5 28 -4 36 7 36 8 0 18 -7 21 -16z m36 -44 c-6 -11 -12 -20 -14 -20 -2 0
-2 9 1 20 3 11 9 20 15 20 5 0 4 -9 -2 -20z m-210 -86 c0 -2 -9 -4 -20 -4 -11
0 -20 4 -20 9 0 5 9 7 20 4 11 -3 20 -7 20 -9z m-220 -24 c0 -13 -5 -18 -15
-14 -8 4 -15 12 -15 20 0 8 7 14 15 14 8 0 15 -9 15 -20z m45 -10 c-4 -12 -9
-19 -12 -17 -3 3 -2 15 2 27 4 12 9 19 12 17 3 -3 2 -15 -2 -27z"/>
<path d="M2460 1460 c0 -16 2 -30 4 -30 2 0 6 14 8 30 3 17 1 30 -4 30 -4 0
-8 -13 -8 -30z"/>
<path d="M2531 1477 c0 -10 -5 -16 -10 -13 -5 4 -7 -3 -4 -15 5 -19 7 -19 15
-5 5 9 7 24 5 34 -4 15 -5 15 -6 -1z"/>
<path d="M111 1464 c0 -11 3 -14 6 -6 3 7 2 16 -1 19 -3 4 -6 -2 -5 -13z"/>
<path d="M260 1413 c-102 -19 -202 -39 -222 -44 -41 -10 -51 -29 -17 -29 11 0
18 -4 14 -10 -3 -5 -12 -7 -20 -3 -19 7 -21 -52 -2 -61 9 -5 9 -7 0 -12 -19
-8 -19 -348 0 -341 6 2 11 10 9 16 -1 6 5 14 13 18 19 7 41 -21 49 -61 5 -23
9 -26 20 -17 7 6 22 9 32 5 11 -3 15 -2 9 3 -16 13 -37 54 -31 60 9 9 75 9 69
1 -2 -5 1 -8 7 -8 6 0 17 14 24 31 13 31 13 31 20 8 4 -14 9 -19 13 -11 7 16
23 15 23 -2 0 -9 8 -13 23 -9 19 4 20 3 5 -7 -23 -14 -23 -26 0 -26 15 0 18 8
18 41 -1 27 3 39 12 37 9 -1 11 6 7 25 -5 26 -5 26 4 6 6 -13 16 -23 23 -23 7
-1 3 -9 -9 -19 -27 -23 -29 -31 -7 -31 10 0 14 -6 11 -14 -3 -8 -9 -31 -13
-50 -5 -30 -3 -36 11 -36 12 0 16 -6 12 -19 -3 -11 1 -22 8 -24 11 -5 50 -125
43 -133 -4 -3 -242 62 -295 81 -8 3 -22 -26 -38 -81 -15 -46 -30 -82 -35 -79
-4 3 -19 1 -32 -4 -21 -9 -21 -10 -3 -11 18 -1 18 -2 3 -10 -22 -13 -22 -74 0
-65 11 4 13 0 7 -22 -5 -16 -8 -38 -9 -50 -1 -12 -4 -25 -9 -29 -4 -4 -7 -29
-7 -55 0 -41 3 -47 17 -42 12 5 15 2 10 -10 -4 -12 -2 -14 11 -10 46 16 56 43
38 101 -4 12 -3 22 2 22 6 0 13 7 16 16 3 9 2 12 -5 8 -7 -4 -9 2 -7 17 2 13
9 23 16 21 7 -1 20 14 29 33 24 50 34 43 29 -21 -4 -54 -3 -55 15 -38 11 9 22
14 26 10 4 -4 1 -11 -6 -15 -7 -5 -11 -15 -9 -22 3 -9 11 -6 28 11 23 23 23
23 18 2 -7 -26 -1 -28 24 -5 16 14 18 14 18 0 0 -8 -6 -17 -12 -20 -7 -2 -10
-8 -6 -12 3 -3 21 4 38 16 26 20 33 21 40 9 5 -8 6 -18 3 -24 -3 -5 -1 -6 6
-2 6 4 9 12 6 17 -4 5 -1 9 4 9 14 0 14 -15 0 -43 l-10 -22 18 21 c10 12 26
36 35 53 18 33 38 41 38 15 0 -9 -5 -13 -12 -9 -7 4 -4 -1 7 -11 20 -16 20
-16 -2 -11 -13 3 -26 0 -30 -5 -3 -7 -1 -8 5 -4 7 4 12 3 12 -2 0 -6 -7 -13
-16 -16 -9 -4 -14 -9 -11 -13 4 -3 1 -13 -6 -22 -11 -14 -10 -14 5 -2 10 7 15
17 12 22 -3 5 -1 9 4 9 21 0 20 -29 -1 -45 -12 -9 -16 -13 -9 -10 13 7 42 -17
42 -35 0 -6 5 -8 10 -5 6 3 10 -2 10 -12 0 -11 5 -24 12 -31 9 -9 9 -12 -1
-12 -9 0 -11 -9 -6 -30 6 -26 4 -30 -14 -30 -14 0 -19 -5 -15 -15 5 -11 10
-13 19 -5 6 5 15 7 18 3 12 -12 7 -23 -10 -23 -12 0 -14 -3 -6 -8 7 -4 11 -17
10 -29 -1 -18 -6 -21 -40 -17 -47 4 -57 10 -57 35 0 10 -10 29 -21 40 -17 17
-20 26 -11 39 6 10 8 27 5 39 -4 18 -12 21 -37 19 -41 -4 -59 -47 -32 -77 15
-17 16 -24 5 -60 -7 -23 -18 -41 -26 -41 -7 0 -13 5 -13 10 0 7 -6 7 -17 2
-10 -5 -27 -6 -38 -1 -11 4 -15 8 -9 8 6 1 11 19 11 41 0 40 18 74 34 64 10
-6 22 37 17 62 -2 11 -16 21 -36 25 -35 7 -45 -1 -73 -64 -15 -33 -21 -33 -67
-2 -20 14 -40 25 -44 25 -5 0 -8 -18 -8 -39 0 -41 15 -56 65 -60 26 -2 16 -19
-10 -17 -14 0 -25 4 -25 7 0 4 -7 9 -15 13 -13 4 -15 -7 -15 -69 l0 -75 238 0
237 0 28 98 c32 112 32 113 12 106 -8 -4 -15 -1 -15 5 0 6 9 11 20 11 18 0 25
11 21 34 -1 4 3 13 8 20 5 6 24 58 41 116 17 58 38 126 46 153 8 26 19 47 24
47 6 0 10 5 10 11 0 5 -4 8 -9 5 -4 -3 -28 0 -52 8 l-44 13 38 8 c31 6 38 12
36 29 0 11 -1 28 0 36 1 13 2 13 12 0 9 -13 10 -13 6 0 -2 8 -10 15 -17 15
-17 0 -32 63 -16 68 6 2 22 -2 36 -10 28 -15 56 -17 64 -5 2 4 -9 9 -26 10
-17 1 -38 7 -48 12 -29 16 -50 12 -50 -9 0 -19 -45 -32 -122 -35 -21 0 -38 -4
-38 -8 0 -5 -5 -8 -11 -8 -5 0 -7 5 -4 10 3 6 0 10 -7 10 -7 0 0 7 17 16 19
10 31 11 33 5 2 -6 8 -11 13 -11 4 0 6 7 3 15 -4 10 0 15 11 15 9 0 14 4 11 9
-3 5 3 11 14 14 13 3 22 17 26 36 8 40 31 40 43 -1 11 -38 14 -16 5 31 -4 18
-11 28 -17 24 -6 -4 -28 -6 -48 -4 -27 1 -41 -3 -48 -16 -9 -15 -10 -13 -5 11
5 22 2 32 -12 43 -16 12 -17 15 -4 24 8 5 29 8 47 6 17 -1 30 0 27 4 -2 4 5 9
16 12 25 6 26 27 3 27 -14 0 -15 -2 -5 -9 9 -5 -6 -12 -44 -19 -66 -14 -88
-14 -59 -2 19 8 19 9 -1 9 -13 1 -24 9 -27 20 -4 16 -12 19 -38 16 -22 -3 -29
-1 -23 5 15 15 53 20 59 9 9 -14 25 -1 19 15 -3 8 0 17 7 22 8 5 11 2 7 -8 -4
-8 2 -20 14 -27 13 -8 18 -19 15 -32 -6 -21 5 -24 34 -8 16 8 19 17 14 42 -9
43 -25 58 -25 24 0 -26 -22 -38 -34 -18 -9 14 7 46 24 46 11 0 15 10 14 38 -1
36 -1 37 18 21 11 -11 15 -20 8 -24 -15 -9 8 -112 23 -107 12 4 11 53 -1 72
-4 6 -7 19 -8 30 0 11 -13 89 -29 173 -26 139 -31 152 -49 151 -12 -1 -104
-17 -206 -36z m103 -20 c-7 -2 -19 -2 -25 0 -7 3 -2 5 12 5 14 0 19 -2 13 -5z
m-50 -10 c-7 -2 -21 -2 -30 0 -10 3 -4 5 12 5 17 0 24 -2 18 -5z m-53 -7 c0
-2 -11 -6 -25 -8 -14 -3 -25 -1 -25 3 0 5 11 9 25 9 14 0 25 -2 25 -4z m-65
-11 c-38 -14 -85 -22 -85 -15 0 5 12 11 28 13 35 5 70 6 57 2z m-102 -22 c-7
-2 -21 -2 -30 0 -10 3 -4 5 12 5 17 0 24 -2 18 -5z m-43 -43 c0 -5 -8 -10 -17
-10 -15 0 -16 2 -3 10 19 12 20 12 20 0z m24 -17 c-7 -28 -7 -28 15 -9 13 12
21 14 21 7 0 -7 5 -9 10 -6 6 3 10 4 10 1 0 -4 -58 -36 -67 -36 -1 0 -3 16 -3
35 0 19 5 35 10 35 6 0 8 -11 4 -27z m340 -15 c8 -32 7 -48 -3 -48 -5 0 -11
16 -13 35 -4 39 6 48 16 13z m51 -8 c7 -23 -2 -43 -18 -37 -11 3 -19 36 -11
49 9 14 22 9 29 -12z m-255 -11 c0 -6 7 -17 15 -25 18 -18 9 -44 -16 -44 -23
0 -36 27 -21 42 6 6 8 17 5 24 -3 8 0 14 6 14 6 0 11 -5 11 -11z m130 -25 c0
-19 -5 -24 -25 -24 -20 0 -25 5 -25 24 0 13 6 26 13 29 22 7 37 -4 37 -29z
m35 26 c-3 -5 -1 -10 4 -10 6 0 11 -7 11 -15 0 -9 -9 -15 -22 -15 -19 0 -20 2
-8 10 10 6 11 10 3 10 -7 0 -13 7 -13 15 0 8 7 15 16 15 8 0 12 -4 9 -10z
m-110 -8 c14 -9 17 -52 5 -52 -5 0 -14 9 -20 19 -18 34 -10 51 15 33z m-170
-43 c4 -17 4 -33 1 -36 -9 -9 -12 -2 -19 35 -8 41 9 42 18 1z m-65 12 c0 -5 9
-11 20 -14 14 -3 20 -14 20 -31 0 -32 -7 -33 -21 -3 -9 20 -9 20 -6 -6 3 -15
0 -30 -5 -33 -4 -3 -8 -2 -7 3 1 4 -3 21 -9 36 -15 35 -15 57 -2 57 6 0 10 -4
10 -9z m137 -6 c3 -9 -2 -24 -12 -35 -9 -10 -14 -23 -10 -29 3 -6 0 -8 -8 -5
-15 5 -27 34 -27 64 0 21 49 25 57 5z m129 -40 c-3 -8 -9 -22 -13 -32 -5 -12
-3 -14 8 -8 10 5 11 5 4 -3 -10 -10 -35 -15 -65 -13 -9 0 -16 10 -16 20 0 11
4 17 9 14 4 -3 15 3 23 13 14 17 15 17 10 2 -3 -10 -1 -18 4 -18 5 0 12 9 15
20 3 11 11 20 17 20 5 0 7 -7 4 -15z m167 -2 c-5 -11 -3 -14 6 -9 8 5 7 -3 -4
-23 -9 -18 -20 -29 -25 -26 -6 4 -10 2 -10 -4 0 -10 -19 -9 -37 2 -8 5 -13 3
-13 -3 0 -6 -4 -8 -10 -5 -5 3 -16 3 -22 -1 -20 -13 -48 -12 -48 2 0 31 12 44
31 33 13 -6 19 -6 19 1 0 5 5 10 12 10 6 0 20 7 30 17 17 15 18 15 18 -3 0
-17 2 -17 22 4 27 26 40 29 31 5z m8 -366 c-8 -8 -11 -7 -11 4 0 20 13 34 18
19 3 -7 -1 -17 -7 -23z m-296 -106 c3 -6 -3 -14 -12 -20 -17 -10 -17 -10 0
-11 9 0 17 -4 17 -9 0 -10 -48 -2 -56 10 -3 5 0 9 5 9 6 0 10 3 10 8 -4 23 23
32 36 13z m362 -33 c-7 -4 -23 -8 -36 -8 -23 0 -23 1 -7 19 15 16 22 18 37 8
13 -8 15 -13 6 -19z m-220 -55 c-18 -35 -30 -83 -21 -83 7 0 44 40 44 48 0 2
-7 -1 -15 -8 -12 -10 -15 -10 -15 4 0 15 6 17 50 21 8 0 20 3 25 7 6 3 15 0
22 -7 9 -10 8 -14 -6 -18 -10 -2 -20 -14 -24 -26 -7 -27 -3 -26 23 1 11 12 23
18 27 15 4 -4 1 -13 -5 -19 -15 -15 -16 -31 0 -22 7 4 8 3 4 -4 -8 -14 -57 -5
-68 12 -4 6 -3 15 2 20 6 6 10 17 10 26 -1 12 -4 11 -16 -5 -8 -11 -12 -26 -9
-33 3 -9 0 -12 -9 -9 -8 3 -16 1 -18 -5 -3 -7 -12 -9 -22 -5 -14 6 -17 14 -13
36 8 41 -1 44 -30 10 -25 -29 -56 -38 -68 -19 -7 12 12 40 27 40 5 0 2 -8 -8
-17 -11 -12 -13 -18 -5 -21 15 -5 42 18 35 29 -3 5 0 8 8 7 7 -2 12 3 11 10
-2 6 3 12 10 12 8 0 24 12 38 26 28 29 36 18 16 -23z m-272 -43 c-3 -5 -14
-10 -23 -9 -14 0 -13 2 3 9 27 11 27 11 20 0z m435 -21 c0 -5 -4 -8 -9 -4 -5
3 -12 1 -15 -4 -3 -5 2 -12 12 -16 16 -6 16 -7 -2 -21 -23 -16 -36 -18 -36 -4
0 6 3 9 8 9 19 -3 26 2 13 10 -8 5 -11 16 -8 25 7 18 37 22 37 5z m-230 -44
c0 -1 -6 -8 -14 -15 -12 -9 -15 -8 -13 8 0 12 6 18 14 15 7 -3 13 -6 13 -8z
m96 -7 c-1 -15 6 -24 24 -28 23 -6 21 -7 -14 -14 -51 -10 -64 4 -35 38 12 14
23 26 24 26 1 0 1 -10 1 -22z m-65 -20 c11 -21 11 -22 -4 -9 -10 7 -17 17 -17
22 0 15 9 10 21 -13z m169 -103 c-11 -29 4 -35 19 -7 8 13 12 14 22 5 10 -10
9 -14 -4 -19 -9 -3 -17 -10 -17 -15 0 -6 10 -4 23 2 20 11 21 11 8 -4 -15 -19
-41 -23 -41 -6 0 6 -8 8 -19 4 -16 -5 -18 -1 -16 27 3 41 2 38 20 38 11 0 12
-5 5 -25z m-386 -40 c3 -9 0 -15 -9 -15 -8 0 -15 7 -15 15 0 8 4 15 9 15 5 0
11 -7 15 -15z m486 -5 c0 -5 -4 -10 -9 -10 -6 0 -13 5 -16 10 -3 6 1 10 9 10
9 0 16 -4 16 -10z m-34 -76 c-13 -9 -23 -11 -30 -4 -7 7 -3 15 10 24 13 10 22
11 29 5 7 -7 4 -15 -9 -25z m-359 -36 c-3 -8 -6 -5 -6 6 -1 11 2 17 5 13 3 -3
4 -12 1 -19z m-62 -38 c3 -5 1 -10 -4 -10 -6 0 -11 5 -11 10 0 6 2 10 4 10 3
0 8 -4 11 -10z m415 0 c0 -5 -4 -10 -9 -10 -6 0 -13 5 -16 10 -3 6 1 10 9 10
9 0 16 -4 16 -10z"/>
<path d="M196 1211 c-4 -5 -2 -12 3 -15 5 -4 12 -2 15 3 4 5 2 12 -3 15 -5 4
-12 2 -15 -3z"/>
<path d="M130 1190 c0 -5 5 -10 10 -10 6 0 10 5 10 10 0 6 -4 10 -10 10 -5 0
-10 -4 -10 -10z"/>
<path d="M290 605 c-7 -9 -8 -15 -2 -15 5 0 12 7 16 15 3 8 4 15 2 15 -2 0 -9
-7 -16 -15z"/>
<path d="M326 462 c-3 -5 1 -9 9 -9 8 0 12 4 9 9 -3 4 -7 8 -9 8 -2 0 -6 -4
-9 -8z"/>
<path d="M2480 1431 c0 -11 4 -22 9 -25 4 -3 6 6 3 19 -5 30 -12 33 -12 6z"/>
<path d="M865 1390 c-2 -3 5 -7 16 -7 10 -1 19 2 19 6 0 9 -29 10 -35 1z"/>
<path d="M1495 1379 c-10 -30 -2 -32 12 -3 6 13 7 24 3 24 -5 0 -12 -9 -15
-21z"/>
<path d="M1690 1390 l-35 -7 32 -2 c17 0 35 4 38 9 3 6 5 9 3 9 -2 -1 -19 -5
-38 -9z"/>
<path d="M925 1380 c-3 -5 -1 -10 4 -10 6 0 11 5 11 10 0 6 -2 10 -4 10 -3 0
-8 -4 -11 -10z"/>
<path d="M1379 1358 c-16 -18 -29 -37 -29 -43 0 -5 5 -2 11 9 9 15 13 16 20 5
7 -11 9 -10 9 5 0 11 7 28 17 38 9 10 13 18 9 18 -4 0 -20 -15 -37 -32z"/>
<path d="M1471 1374 c0 -11 3 -14 6 -6 3 7 2 16 -1 19 -3 4 -6 -2 -5 -13z"/>
<path d="M955 1370 c3 -5 8 -10 11 -10 2 0 4 5 4 10 0 6 -5 10 -11 10 -5 0 -7
-4 -4 -10z"/>
<path d="M1000 1370 c0 -5 5 -10 11 -10 5 0 7 5 4 10 -3 6 -8 10 -11 10 -2 0
-4 -4 -4 -10z"/>
<path d="M1446 1365 c-9 -26 -7 -32 5 -12 6 10 9 21 6 23 -2 3 -7 -2 -11 -11z"/>
<path d="M2582 1345 c-10 -21 -9 -25 3 -25 9 0 15 10 15 25 0 14 -2 25 -3 25
-2 0 -9 -11 -15 -25z"/>
<path d="M2637 1363 c-2 -5 -1 -19 4 -33 7 -23 7 -23 8 8 1 31 -3 40 -12 25z"/>
<path d="M2720 1360 c0 -6 -6 -10 -12 -9 -7 1 -22 1 -33 0 -15 -1 -17 -3 -6
-10 7 -5 22 -6 32 -4 22 6 47 33 30 33 -6 0 -11 -5 -11 -10z"/>
<path d="M1730 1346 c0 -8 -6 -16 -12 -18 -8 -3 -5 -9 8 -16 19 -10 20 -8 16
19 -4 30 -12 40 -12 15z"/>
<path d="M654 1341 c5 -8 56 -3 56 5 0 2 -14 4 -31 4 -16 0 -28 -4 -25 -9z"/>
<path d="M1160 1326 c0 -30 15 -42 24 -20 10 27 7 44 -9 44 -9 0 -15 -9 -15
-24z"/>
<path d="M1405 1339 c-4 -6 -5 -12 -2 -15 2 -3 7 2 10 11 7 17 1 20 -8 4z"/>
<path d="M1499 1333 c-13 -16 -12 -17 4 -4 9 7 17 15 17 17 0 8 -8 3 -21 -13z"/>
<path d="M1372 1290 c0 -14 2 -19 5 -12 2 6 2 18 0 25 -3 6 -5 1 -5 -13z"/>
<path d="M890 1285 c-8 -9 -8 -15 -2 -15 12 0 26 19 19 26 -2 2 -10 -2 -17
-11z"/>
<path d="M2681 1275 c0 -16 3 -24 6 -17 2 6 9 10 13 7 5 -3 12 0 16 6 4 7 3 9
-4 5 -6 -3 -15 2 -21 11 -9 15 -10 13 -10 -12z"/>
<path d="M2756 1283 c-6 -14 -5 -15 5 -6 7 7 10 15 7 18 -3 3 -9 -2 -12 -12z"/>
<path d="M1515 1269 c-4 -6 -5 -12 -2 -15 2 -3 7 2 10 11 7 17 1 20 -8 4z"/>
<path d="M1536 1265 c-3 -9 -6 -22 -5 -28 0 -7 5 -1 10 12 5 13 8 26 5 28 -2
2 -6 -3 -10 -12z"/>
<path d="M2527 1266 c-6 -16 2 -28 14 -20 12 7 11 34 0 34 -5 0 -11 -6 -14
-14z"/>
<path d="M2572 1250 c0 -19 2 -27 5 -17 2 9 2 25 0 35 -3 9 -5 1 -5 -18z"/>
<path d="M846 1232 c-24 -46 -29 -95 -12 -117 14 -19 15 -19 35 -1 31 28 47
89 33 121 -15 33 -38 32 -56 -3z m44 -28 c0 -29 -26 -84 -40 -84 -15 0 -12 46
5 86 16 39 35 37 35 -2z"/>
<path d="M2595 1240 c3 -5 8 -10 11 -10 2 0 4 5 4 10 0 6 -5 10 -11 10 -5 0
-7 -4 -4 -10z"/>
<path d="M1501 1224 c0 -11 3 -14 6 -6 3 7 2 16 -1 19 -3 4 -6 -2 -5 -13z"/>
<path d="M2701 1208 c-1 -22 4 -28 19 -28 11 0 20 5 20 11 0 6 -6 9 -14 6 -10
-4 -16 2 -19 16 -4 18 -5 17 -6 -5z"/>
<path d="M1051 1194 c-22 -28 -30 -117 -12 -128 27 -17 71 41 71 92 0 66 -24
80 -59 36z m40 -6 c4 -44 -25 -113 -42 -102 -12 7 -4 66 12 96 11 21 28 24 30
6z"/>
<path d="M1441 1194 c0 -11 3 -14 6 -6 3 7 2 16 -1 19 -3 4 -6 -2 -5 -13z"/>
<path d="M2629 1189 c-5 -22 -2 -26 17 -25 13 1 27 6 31 10 5 5 2 6 -6 1 -11
-6 -13 -4 -8 11 7 18 6 18 -7 1 -14 -18 -15 -17 -18 5 -4 23 -4 23 -9 -3z"/>
<path d="M1541 1174 c0 -11 3 -14 6 -6 3 7 2 16 -1 19 -3 4 -6 -2 -5 -13z"/>
<path d="M1372 1160 c0 -14 2 -19 5 -12 2 6 2 18 0 25 -3 6 -5 1 -5 -13z"/>
<path d="M1230 1154 c0 -8 -4 -12 -10 -9 -6 3 -7 -1 -4 -9 4 -9 17 -16 33 -15
14 0 20 3 14 6 -7 2 -13 13 -13 24 0 10 -4 19 -10 19 -5 0 -10 -7 -10 -16z"/>
<path d="M2560 1140 c-13 -8 -12 -10 3 -10 9 0 17 5 17 10 0 12 -1 12 -20 0z"/>
<path d="M1422 1120 c0 -14 2 -19 5 -12 2 6 2 18 0 25 -3 6 -5 1 -5 -13z"/>
<path d="M2735 1130 c3 -5 8 -10 11 -10 2 0 4 5 4 10 0 6 -5 10 -11 10 -5 0
-7 -4 -4 -10z"/>
<path d="M2766 1128 c3 -4 9 -8 15 -8 5 0 9 4 9 8 0 5 -7 9 -15 9 -8 0 -12 -4
-9 -9z"/>
<path d="M2347 1111 c-3 -13 -1 -18 9 -14 7 2 10 11 7 19 -7 19 -10 18 -16 -5z"/>
<path d="M2680 1120 c0 -5 -5 -9 -11 -7 -6 1 -14 -5 -16 -13 -3 -10 -2 -11 4
-4 4 6 16 10 25 9 11 -2 15 2 11 11 -6 16 -13 18 -13 4z"/>
<path d="M1258 1093 c6 -2 18 -2 25 0 6 3 1 5 -13 5 -14 0 -19 -2 -12 -5z"/>
<path d="M2626 1075 c4 -8 8 -15 10 -15 2 0 4 7 4 15 0 8 -4 15 -10 15 -5 0
-7 -7 -4 -15z"/>
<path d="M475 1070 c-3 -5 -1 -10 4 -10 6 0 11 5 11 10 0 6 -2 10 -4 10 -3 0
-8 -4 -11 -10z"/>
<path d="M2425 1070 c3 -5 8 -10 11 -10 2 0 4 5 4 10 0 6 -5 10 -11 10 -5 0
-7 -4 -4 -10z"/>
<path d="M2791 1063 c-8 -14 -10 -15 -11 -3 0 12 -2 12 -9 2 -4 -8 -11 -13
-15 -13 -3 1 -6 -1 -6 -4 0 -3 0 -8 0 -11 0 -4 6 -2 13 4 12 10 18 12 35 12 5
0 9 7 9 15 0 19 -4 19 -16 -2z"/>
<path d="M1194 1003 c2 -37 4 -78 5 -91 0 -13 5 -21 11 -17 5 3 18 0 29 -7 14
-9 18 -19 14 -39 -3 -15 0 -29 5 -33 7 -4 10 4 9 20 -1 15 4 29 12 32 9 3 11
0 6 -9 -5 -8 -5 -11 0 -7 4 4 17 3 29 -3 l21 -10 -21 16 c-25 18 -21 64 5 66
9 1 0 6 -19 12 -19 6 -41 18 -48 26 -8 9 -11 10 -7 4 3 -7 8 -23 10 -35 3 -12
10 -26 17 -31 9 -6 7 -7 -5 -3 -10 3 -21 6 -23 6 -2 0 -4 13 -4 29 0 17 -5 33
-10 36 -6 4 -8 11 -4 16 3 5 10 6 16 3 7 -4 8 5 3 27 -9 40 -24 72 -25 50 0
-11 -3 -11 -14 -1 -13 10 -14 2 -12 -57z m96 -83 c0 -5 -7 -7 -15 -4 -8 4 -15
8 -15 10 0 2 7 4 15 4 8 0 15 -4 15 -10z"/>
<path d="M2400 1050 c0 -13 5 -18 15 -14 12 5 13 10 4 20 -15 19 -19 18 -19
-6z"/>
<path d="M840 1050 c0 -5 5 -10 11 -10 5 0 7 5 4 10 -3 6 -8 10 -11 10 -2 0
-4 -4 -4 -10z"/>
<path d="M2487 1043 c-14 -13 -7 -25 8 -13 17 14 35 5 35 -18 0 -12 3 -13 11
-5 17 17 3 43 -24 43 -13 0 -27 -3 -30 -7z"/>
<path d="M2674 1028 c-3 -4 2 -8 10 -8 8 0 17 4 20 8 3 5 -2 9 -10 9 -8 0 -17
-4 -20 -9z"/>
<path d="M2877 1022 c-21 -23 -22 -52 -1 -78 11 -13 17 -15 20 -7 4 9 11 10
25 3 15 -9 17 -14 8 -34 -8 -16 -7 -35 0 -63 14 -52 30 -66 55 -47 16 11 17
16 6 29 -10 12 -10 15 0 15 9 0 10 3 1 13 -6 8 -8 16 -5 20 11 11 -23 58 -56
75 -19 11 -36 25 -38 33 -3 11 -1 11 7 -1 5 -8 11 -12 13 -10 39 61 36 88 -6
53 -20 -17 -20 -17 -7 0 18 23 -1 22 -22 -1z"/>
<path d="M957 1014 c-10 -10 -9 -62 2 -68 14 -9 33 21 29 45 -3 23 -19 35 -31
23z"/>
<path d="M1411 1004 c0 -11 3 -14 6 -6 3 7 2 16 -1 19 -3 4 -6 -2 -5 -13z"/>
<path d="M1428 997 c-3 -19 -2 -25 4 -19 6 6 8 18 6 28 -3 14 -5 12 -10 -9z"/>
<path d="M763 980 c4 -14 7 -28 7 -31 0 -4 7 -9 15 -13 11 -4 15 2 15 26 0 17
-3 28 -7 25 -3 -4 -13 -1 -21 6 -13 10 -15 8 -9 -13z"/>
<path d="M2408 942 c-3 -31 -1 -68 4 -81 5 -16 5 -28 -2 -35 -7 -7 -10 -6 -11
2 -3 26 -4 31 -11 37 -4 4 -4 14 -1 23 4 12 3 14 -5 7 -7 -7 -7 -24 2 -59 8
-30 16 -44 20 -37 6 9 11 9 24 -1 14 -12 14 -10 3 10 -7 12 -8 22 -2 22 5 0
13 -9 16 -20 6 -18 37 -30 34 -12 -3 19 2 25 11 12 7 -11 9 -5 5 20 l-5 35 15
-35 c12 -28 14 -29 10 -8 -3 14 -8 34 -11 43 -5 11 2 9 20 -8 25 -23 36 -44
17 -32 -6 3 -9 -3 -8 -13 0 -10 7 -19 14 -19 13 0 17 10 14 36 -2 7 2 10 8 6
8 -4 8 2 1 20 -15 39 -11 55 5 20 8 -16 14 -23 14 -15 0 16 -28 71 -29 57 0
-10 -50 48 -50 58 0 3 5 3 12 -1 7 -5 8 -3 3 6 -6 10 -11 10 -20 -3 -7 -10
-18 -17 -25 -17 -12 0 -10 -28 5 -77 4 -14 3 -23 -3 -23 -11 0 -27 56 -23 79
2 13 0 13 -14 1 -9 -7 -12 -16 -6 -19 5 -4 13 -19 16 -34 4 -15 11 -30 16 -33
5 -3 9 -12 9 -21 0 -12 -5 -11 -20 7 -12 14 -20 18 -20 10 0 -22 -18 2 -26 34
-5 23 -4 27 6 21 10 -6 12 -4 7 8 -3 9 -2 19 3 22 14 9 12 34 -4 50 -12 12
-14 5 -18 -43z m143 -55 c13 -47 8 -54 -17 -25 -10 12 -13 18 -6 14 6 -4 12
-2 12 3 0 11 -13 15 -37 12 -7 -1 -13 2 -13 6 0 4 -3 19 -5 33 -5 22 -4 22 10
-5 l15 -30 -6 33 c-6 33 -6 33 15 15 12 -10 26 -35 32 -56z m-86 -67 c3 -5 1
-10 -4 -10 -6 0 -11 5 -11 10 0 6 2 10 4 10 3 0 8 -4 11 -10z"/>
<path d="M2520 910 c0 -5 5 -10 11 -10 5 0 7 5 4 10 -3 6 -8 10 -11 10 -2 0
-4 -4 -4 -10z"/>
<path d="M2800 990 c-13 -8 -13 -10 2 -10 9 0 20 5 23 10 8 13 -5 13 -25 0z"/>
<path d="M1379 948 c-1 -2 -2 -18 -4 -35 -2 -22 2 -33 10 -33 16 0 30 33 16
38 -5 2 -7 10 -4 18 4 11 -13 22 -18 12z"/>
<path d="M1515 930 c-3 -6 1 -7 9 -4 18 7 21 14 7 14 -6 0 -13 -4 -16 -10z"/>
<path d="M1983 920 c-38 -17 -43 -40 -10 -40 32 0 49 14 45 36 -3 18 -5 18
-35 4z"/>
<path d="M2585 929 c-4 -6 2 -21 14 -33 22 -23 28 -42 11 -31 -5 3 -10 2 -10
-4 0 -5 6 -12 13 -15 9 -3 7 -8 -5 -16 -25 -15 -48 -40 -48 -51 0 -14 58 -11
63 4 3 7 6 5 6 -5 1 -10 7 -18 14 -19 6 0 23 -2 37 -5 24 -4 23 -2 -9 24 -33
28 -33 29 -17 60 20 38 20 46 1 38 -8 -3 -26 5 -40 18 -25 23 -34 43 -15 31 6
-3 10 -1 10 4 0 14 -17 14 -25 0z"/>
<path d="M2122 903 l-63 -15 7 -31 c3 -18 8 -34 10 -36 5 -5 134 20 138 28 5
10 -14 71 -22 70 -4 0 -35 -7 -70 -16z m15 -19 c-3 -3 -12 -4 -19 -1 -8 3 -5
6 6 6 11 1 17 -2 13 -5z m0 -20 c-3 -3 -12 -4 -19 -1 -8 3 -5 6 6 6 11 1 17
-2 13 -5z m6 -21 c-7 -2 -19 -2 -25 0 -7 3 -2 5 12 5 14 0 19 -2 13 -5z"/>
<path d="M1910 898 c0 -11 -7 -14 -25 -10 -25 4 -31 -3 -17 -25 10 -16 49 -6
57 15 3 8 1 20 -5 26 -7 7 -10 5 -10 -6z"/>
<path d="M1840 883 c0 -7 -7 -10 -15 -7 -9 4 -15 0 -15 -10 0 -10 9 -16 25
-16 27 0 30 7 15 30 -6 9 -10 11 -10 3z"/>
<path d="M2347 873 c-4 -6 -3 -23 3 -38 13 -33 13 -52 1 -39 -5 5 -11 20 -13
34 -3 28 -21 30 -26 3 -2 -12 0 -14 5 -6 5 7 8 -4 8 -28 0 -22 -4 -38 -10 -35
-5 2 -9 11 -9 20 1 9 -2 16 -7 16 -5 0 -7 10 -4 23 5 19 0 24 -30 33 -35 11
-36 11 -30 -10 3 -11 8 -33 10 -47 4 -26 22 -79 27 -79 2 0 4 19 5 42 1 28 -2
37 -8 27 -5 -8 -9 -9 -9 -4 0 6 4 16 9 24 7 11 12 3 22 -27 7 -23 18 -42 26
-42 7 0 13 5 13 10 0 25 17 6 26 -30 6 -22 7 -37 3 -34 -4 2 -12 -4 -18 -13
-6 -10 -11 -13 -11 -8 0 6 -4 4 -8 -2 -5 -8 -8 1 -8 22 0 36 -9 53 -21 41 -4
-4 -2 -16 5 -26 14 -23 15 -30 4 -30 -5 0 -14 10 -20 23 -10 22 -11 22 -11 -5
-1 -16 4 -27 10 -25 6 1 14 -4 17 -12 3 -9 0 -11 -8 -6 -21 13 -2 -53 42 -144
37 -77 39 -85 24 -97 -25 -18 -10 -61 33 -89 43 -30 51 -31 87 -4 l29 21 -28
-26 c-34 -31 -52 -32 -94 -6 l-32 19 -10 -37 c-10 -39 -33 -173 -35 -207 -1
-17 6 -20 51 -23 45 -3 55 1 86 28 19 16 42 30 50 30 15 0 15 -3 1 -37 -13
-31 -14 -35 -2 -25 8 6 19 8 23 4 5 -4 5 1 2 11 -4 11 1 25 14 38 21 21 46 21
41 0 -1 -7 -3 -23 -4 -36 -1 -14 -6 -25 -11 -25 -6 0 -7 17 -4 37 5 38 5 38
-18 -12 -13 -27 -24 -42 -24 -31 -1 15 -4 16 -16 6 -9 -7 -18 -10 -22 -7 -3 4
-12 2 -19 -4 -15 -12 -38 -3 -29 12 4 5 -8 6 -27 1 -18 -4 -48 -7 -65 -7 -25
0 -33 -4 -33 -17 0 -17 22 -18 321 -18 312 0 321 1 326 20 3 11 12 20 20 20 9
0 13 6 9 15 -3 8 0 15 7 15 7 0 13 11 13 24 1 18 -2 23 -13 19 -13 -5 -15 2
-12 39 l4 45 -53 11 c-29 6 -66 21 -82 32 -38 27 -62 71 -49 91 16 26 9 34
-11 10 -22 -26 -26 -46 -7 -35 10 6 10 4 0 -7 -9 -9 -16 -10 -24 -2 -15 15
-59 -7 -59 -29 0 -9 -5 -20 -11 -24 -9 -5 -10 1 -5 20 6 26 5 27 -25 24 -40
-4 -47 13 -16 42 38 36 57 35 51 -3 l-5 -32 14 31 c8 17 22 34 32 38 23 9 25
8 25 -11 0 -15 1 -15 18 0 36 33 50 22 48 -35 -1 -51 0 -54 34 -70 19 -9 56
-20 82 -23 52 -8 48 -13 62 74 5 30 4 33 -14 28 -11 -3 -20 -1 -20 4 0 5 -17
9 -37 9 -47 1 -27 15 35 25 23 4 42 11 42 15 0 15 -81 33 -150 32 -36 0 -92
-7 -125 -15 -33 -9 -71 -14 -84 -10 -20 5 -23 3 -18 -11 4 -10 0 -30 -7 -45
-8 -15 -14 -35 -13 -45 1 -11 -4 -21 -10 -23 -17 -6 -16 20 2 63 8 19 10 32 5
29 -5 -3 -14 -21 -20 -40 -6 -19 -15 -35 -20 -35 -5 0 -4 14 2 31 13 37 2 52
-12 15 -5 -14 -14 -37 -20 -51 -5 -14 -14 -25 -20 -25 -6 0 -4 15 6 37 23 54
28 73 17 73 -5 0 -14 -5 -21 -12 -7 -7 -12 -9 -12 -6 0 4 15 17 33 29 19 14
27 17 19 7 -12 -15 -10 -16 15 -13 15 2 33 4 38 5 6 0 2 5 -8 11 -14 8 -15 14
-6 30 13 25 15 23 -46 37 -28 6 -76 20 -108 32 -56 21 -57 23 -53 53 18 117
18 131 2 118 -23 -20 -19 -1 5 26 16 16 19 26 12 35 -6 7 -15 27 -21 43 l-11
30 3 -30 c2 -16 7 -39 11 -50 7 -16 5 -18 -5 -8 -7 7 -14 21 -15 32 -1 11 -10
30 -21 42 -15 18 -16 21 -3 17 29 -11 36 4 24 52 -6 25 -14 40 -18 33z m-1
-249 c-11 -7 -22 -12 -25 -9 -2 3 4 12 15 19 10 8 21 12 24 9 3 -2 -4 -11 -14
-19z m154 -240 c0 -2 -9 0 -20 6 -11 6 -20 13 -20 16 0 2 9 0 20 -6 11 -6 20
-13 20 -16z m224 -139 c-4 -8 -2 -15 4 -15 6 0 13 6 15 13 3 6 6 -3 6 -20 1
-18 -3 -33 -9 -33 -5 0 -6 8 -3 18 6 15 5 16 -12 2 -17 -14 -18 -13 -12 3 4
11 3 16 -3 12 -6 -3 -10 -14 -11 -23 0 -11 -2 -12 -6 -4 -3 7 2 24 11 37 18
28 28 33 20 10z m-139 -44 c1 -25 -2 -29 -22 -27 -35 4 -39 14 -13 41 27 29
33 26 35 -14z m66 -14 c-6 -8 -8 -17 -4 -20 3 -4 1 -7 -4 -7 -12 0 -12 -18 -1
-35 7 -12 4 -73 -5 -82 -13 -12 -18 24 -7 53 l10 29 -20 -24 c-11 -13 -20 -34
-20 -47 0 -26 -15 -33 -23 -11 -6 16 61 157 75 157 7 0 7 -4 -1 -13z m126 -19
c-9 -5 -14 -15 -10 -24 3 -9 0 -14 -7 -12 -7 2 -14 -4 -15 -12 -2 -8 -6 -23
-10 -32 -15 -37 13 -16 30 22 10 22 24 40 32 40 11 0 10 -8 -6 -34 -25 -40
-26 -50 -5 -42 8 3 12 2 9 -4 -3 -5 -22 -8 -43 -7 -20 1 -44 -3 -52 -7 -12 -8
-12 -6 1 10 9 10 19 31 23 46 8 34 59 95 64 78 3 -7 -3 -17 -11 -22z m63 -20
c0 -13 3 -33 6 -45 5 -18 10 -20 31 -12 31 12 73 12 73 0 0 -6 -19 -11 -42
-13 -39 -3 -43 -6 -48 -32 -7 -42 -26 -43 -24 -2 1 19 -4 46 -11 60 -14 26
-10 66 6 66 5 0 9 -10 9 -22z m-130 -33 c0 -8 -9 -19 -21 -26 -14 -7 -19 -17
-16 -30 4 -17 3 -18 -9 -8 -19 15 -18 21 7 53 23 29 39 34 39 11z"/>
<path d="M2685 110 c-3 -5 -1 -10 4 -10 6 0 11 5 11 10 0 6 -2 10 -4 10 -3 0
-8 -4 -11 -10z"/>
<path d="M150 850 c-9 -16 -6 -22 16 -36 28 -19 105 -25 110 -9 6 17 -57 48
-70 35 -8 -8 -6 -9 8 -4 13 5 17 4 12 -4 -5 -8 0 -12 13 -12 12 0 21 -4 21
-10 0 -5 -11 -10 -25 -10 -14 0 -25 4 -25 9 0 5 -12 11 -27 13 -33 4 -34 21
-1 28 21 5 21 7 5 13 -25 10 -25 10 -37 -13z"/>
<path d="M1396 855 c4 -8 8 -15 10 -15 2 0 4 7 4 15 0 8 -4 15 -10 15 -5 0 -7
-7 -4 -15z"/>
<path d="M1420 850 c0 -5 5 -10 10 -10 6 0 10 5 10 10 0 6 -4 10 -10 10 -5 0
-10 -4 -10 -10z"/>
<path d="M916 841 c-4 -5 -3 -17 0 -28 5 -15 4 -15 -5 -3 -8 11 -11 12 -11 2
0 -7 -5 -10 -10 -7 -8 5 -8 11 0 20 8 9 5 11 -15 7 -18 -3 -25 -11 -24 -26 0
-11 3 -16 5 -9 4 8 14 8 40 -3 l34 -14 0 35 c0 35 -4 43 -14 26z"/>
<path d="M945 840 c3 -5 12 -7 20 -3 8 3 15 0 15 -7 0 -6 -9 -14 -20 -17 -11
-3 -20 -11 -20 -17 0 -14 35 -15 47 -1 5 4 2 5 -4 1 -7 -4 -13 -2 -13 3 0 6 5
11 10 11 6 0 10 9 10 20 0 15 -7 20 -26 20 -14 0 -23 -4 -19 -10z"/>
<path d="M1001 813 c0 -10 5 -27 10 -38 7 -15 7 -11 3 14 -4 23 -3 31 5 27 6
-4 11 -2 11 3 0 6 -7 11 -15 11 -8 0 -15 -8 -14 -17z"/>
<path d="M1050 826 c0 -2 7 -7 16 -10 8 -3 12 -2 9 4 -6 10 -25 14 -25 6z"/>
<path d="M1038 794 c-8 -30 4 -45 20 -28 7 8 8 14 3 14 -5 0 -11 8 -13 18 -3
14 -5 14 -10 -4z"/>
<path d="M1415 790 c-3 -5 -15 -10 -26 -10 -19 0 -27 -24 -10 -34 18 -11 61
13 61 34 0 21 -14 27 -25 10z"/>
<path d="M2883 779 c-1 -11 3 -17 9 -13 6 4 14 0 19 -7 5 -8 9 -9 9 -3 0 6 -8
18 -18 27 -17 15 -18 15 -19 -4z"/>
<path d="M1330 769 c0 -12 -7 -15 -25 -11 -19 3 -25 0 -26 -14 0 -16 -2 -15
-9 4 -5 12 -11 22 -14 22 -2 0 -2 -10 0 -22 2 -13 2 -17 -2 -10 -8 17 -24 15
-24 -3 0 -13 10 -16 49 -14 27 1 56 8 65 14 14 10 14 14 1 31 -12 16 -14 16
-15 3z"/>
<path d="M1986 772 c-35 -4 -69 -41 -54 -59 5 -7 7 -17 3 -23 -8 -13 28 -12
85 3 44 12 54 26 37 54 -12 20 -39 29 -71 25z"/>
<path d="M2401 770 c0 -8 4 -22 9 -30 12 -18 12 -2 0 25 -6 13 -9 15 -9 5z"/>
<path d="M18 748 c-23 -29 -23 -38 2 -38 16 0 20 7 20 30 0 36 0 36 -22 8z"/>
<path d="M2321 723 c0 -4 4 -17 9 -28 8 -19 9 -19 9 2 1 12 -3 25 -9 28 -5 3
-10 3 -9 -2z"/>
<path d="M2923 713 c9 -2 23 -2 30 0 6 3 -1 5 -18 5 -16 0 -22 -2 -12 -5z"/>
<path d="M795 700 c27 -12 43 -12 25 0 -8 5 -22 9 -30 9 -10 0 -8 -3 5 -9z"/>
<path d="M840 655 c-6 -8 -10 -20 -7 -27 3 -7 6 -4 6 7 1 16 3 17 11 5 7 -12
9 -10 7 8 -2 26 -1 26 -17 7z"/>
<path d="M2077 642 c-6 -9 -27 -10 -79 -5 l-71 6 7 -26 c6 -25 4 -27 -24 -27
-28 0 -30 -2 -20 -20 7 -12 21 -20 38 -20 45 0 53 -26 31 -106 -23 -80 -22
-127 3 -132 9 -2 18 3 21 10 2 7 2 0 -1 -17 -2 -16 -9 -35 -14 -42 -9 -11 2
-118 18 -174 4 -14 19 -12 132 14 70 16 129 30 131 33 2 2 -13 27 -33 56 -36
54 -47 102 -23 111 8 4 8 6 0 6 -6 1 -9 10 -6 21 3 11 0 27 -7 35 -6 8 -9 18
-6 23 3 6 -3 12 -14 15 -10 3 -21 0 -24 -7 -3 -6 -5 -5 -5 3 -1 11 -5 10 -17
-5 -14 -18 -15 -18 -4 3 6 13 16 22 22 20 7 -1 14 6 16 17 3 13 0 16 -9 11 -9
-6 -11 1 -6 28 8 52 -6 46 -21 -8 -7 -26 -25 -57 -43 -75 -27 -25 -31 -34 -25
-62 4 -24 3 -29 -4 -18 -8 12 -10 11 -10 -7 0 -12 -5 -25 -12 -29 -8 -5 -9 -2
-4 12 15 37 18 82 7 100 -6 11 -11 13 -11 6 0 -26 -20 0 -20 26 0 51 11 72 36
72 12 0 29 9 37 20 8 12 18 20 23 18 10 -3 54 32 54 43 0 3 -11 11 -24 17 -16
7 -26 21 -28 39 -2 19 -6 24 -11 15z m-42 -26 c46 -16 54 -39 26 -75 -24 -31
-65 -23 -86 18 -14 27 -13 30 8 45 l22 16 -27 -6 c-18 -4 -28 -2 -28 5 0 15
37 14 85 -3z m112 -273 c1 -36 1 -37 -6 -8 -6 26 -5 45 3 45 1 0 2 -17 3 -37z
m-40 -20 c-3 -10 -5 -4 -5 12 0 17 2 24 5 18 2 -7 2 -21 0 -30z m-103 -27 c-3
-15 -8 -25 -11 -23 -2 3 -1 17 3 31 3 15 8 25 11 23 2 -3 1 -17 -3 -31z m166
-87 c0 -11 -30 -6 -31 5 0 6 -4 1 -10 -12 -5 -13 -13 -20 -19 -17 -6 3 -13 -1
-16 -9 -3 -9 -13 -16 -21 -16 -8 0 -12 4 -9 8 2 4 1 14 -5 22 -7 12 -9 10 -9
-7 0 -26 -38 -52 -44 -31 -15 47 -14 58 5 58 20 0 26 -16 8 -22 -7 -2 -5 -9 5
-17 14 -12 16 -12 11 1 -3 8 1 21 10 28 14 12 18 11 26 -1 6 -10 9 -10 9 -1 0
6 7 12 16 12 9 0 12 5 8 12 -4 6 -3 9 2 6 5 -3 18 -2 29 2 18 6 34 -3 35 -21z"/>
<path d="M2015 550 c-3 -5 1 -10 9 -10 9 0 16 5 16 10 0 6 -4 10 -9 10 -6 0
-13 -4 -16 -10z"/>
<path d="M750 619 c0 -11 4 -18 10 -14 5 3 7 12 3 20 -7 21 -13 19 -13 -6z"/>
<path d="M790 636 c0 -2 7 -9 15 -16 12 -10 15 -10 15 4 0 9 -7 16 -15 16 -8
0 -15 -2 -15 -4z"/>
<path d="M1285 620 c-3 -5 -4 -10 -1 -10 3 0 1 -11 -4 -24 -6 -18 -3 -31 13
-55 19 -27 26 -31 54 -26 27 5 32 3 27 -10 -4 -10 0 -15 15 -15 27 0 27 16 1
30 -24 13 -26 30 -4 30 8 0 12 -4 9 -10 -3 -5 3 -10 14 -10 39 0 22 -80 -19
-92 -9 -3 -10 -7 -3 -11 19 -12 44 18 50 61 l6 41 73 -3 c41 -3 76 0 79 5 4 5
-27 9 -73 9 l-78 0 -14 36 c-8 20 -27 42 -42 50 -31 16 -94 19 -103 4z m120
-41 c10 -15 3 -19 -39 -26 -28 -4 -36 -2 -36 10 0 25 62 38 75 16z"/>
<path d="M681 604 c0 -11 3 -14 6 -6 3 7 2 16 -1 19 -3 4 -6 -2 -5 -13z"/>
<path d="M725 610 c3 -5 8 -10 11 -10 2 0 4 5 4 10 0 6 -5 10 -11 10 -5 0 -7
-4 -4 -10z"/>
<path d="M1835 610 c3 -5 10 -10 16 -10 5 0 9 5 9 10 0 6 -7 10 -16 10 -8 0
-12 -4 -9 -10z"/>
<path d="M1800 566 c0 -19 85 -132 110 -146 26 -14 27 3 2 27 -11 10 -40 44
-65 76 -26 32 -47 51 -47 43z"/>
<path d="M1631 507 c-7 -21 -37 -70 -67 -109 -30 -39 -54 -79 -53 -87 0 -10 4
-7 10 7 5 13 26 44 48 70 44 53 84 128 78 145 -2 7 -9 -5 -16 -26z"/>
<path d="M2418 508 c32 -21 46 -23 37 -5 -4 6 -1 5 7 -4 17 -20 58 -34 58 -20
0 6 -6 11 -13 11 -8 0 -22 9 -31 19 -11 12 -30 19 -51 18 l-34 -1 27 -18z"/>
<path d="M805 512 c-38 -5 -61 -32 -69 -83 -8 -50 -1 -61 15 -26 11 24 46 47
73 47 7 0 24 -16 37 -35 43 -63 52 -40 17 42 -25 57 -29 60 -73 55z"/>
<path d="M131 485 c2 -5 -2 -20 -9 -32 -8 -14 -9 -23 -3 -23 18 0 34 41 21 54
-6 6 -10 7 -9 1z"/>
<path d="M1316 478 c3 -7 17 -22 32 -32 27 -19 27 -19 -2 12 -32 35 -38 38
-30 20z"/>
<path d="M2155 479 c-4 -6 -5 -12 -2 -15 2 -3 7 2 10 11 7 17 1 20 -8 4z"/>
<path d="M2530 470 c0 -5 7 -10 16 -10 8 0 12 5 9 10 -3 6 -10 10 -16 10 -5 0
-9 -4 -9 -10z"/>
<path d="M2576 458 c3 -5 10 -6 15 -3 13 9 11 12 -6 12 -8 0 -12 -4 -9 -9z"/>
<path d="M2692 462 c-9 -6 -7 -13 10 -27 13 -11 17 -13 11 -5 -16 18 -17 34
-1 24 7 -4 8 -3 4 4 -8 14 -8 14 -24 4z"/>
<path d="M2900 455 c-8 -9 -8 -15 -2 -15 12 0 26 19 19 26 -2 2 -10 -2 -17
-11z"/>
<path d="M2936 449 c-13 -13 -15 -19 -6 -19 7 0 19 8 27 18 8 9 12 11 8 5 -4
-8 0 -13 9 -13 9 0 16 -5 16 -12 0 -6 3 -9 6 -5 3 3 3 15 -1 26 -8 26 -34 26
-59 0z"/>
<path d="M2797 453 c-12 -11 -8 -23 8 -23 8 0 15 7 15 15 0 16 -12 20 -23 8z"/>
<path d="M2194 390 c4 -30 11 -59 16 -64 6 -6 7 12 3 45 -3 30 -10 59 -16 64
-6 7 -7 -8 -3 -45z"/>
<path d="M146 411 c-4 -5 -2 -12 3 -15 5 -4 12 -2 15 3 4 5 2 12 -3 15 -5 4
-12 2 -15 -3z"/>
<path d="M189 408 c-6 -21 -5 -37 2 -32 5 3 9 0 9 -7 0 -9 3 -9 14 0 10 8 15
9 18 1 2 -6 20 -12 40 -13 20 -1 34 -5 32 -9 -2 -4 0 -9 5 -12 5 -3 11 5 13
19 3 15 1 22 -5 18 -6 -4 -8 3 -4 18 6 22 5 21 -18 -6 -14 -17 -22 -22 -19
-12 5 13 2 16 -10 11 -9 -3 -22 -1 -30 5 -7 6 -16 8 -19 4 -4 -3 -7 -1 -7 5 0
10 -18 18 -21 10z"/>
<path d="M160 358 c0 -10 3 -18 8 -19 4 0 21 -3 37 -5 25 -3 27 -2 12 6 -9 6
-21 8 -26 5 -6 -3 -14 3 -20 12 -10 17 -10 17 -11 1z"/>
<path d="M900 336 c0 -14 -11 -37 -24 -53 -22 -26 -25 -26 -52 -13 -16 8 -32
14 -36 15 -13 0 -98 -129 -98 -151 0 -4 19 14 42 40 47 55 56 50 63 -34 6 -73
-3 -89 -27 -48 -16 25 -18 36 -9 50 14 23 9 23 -30 -1 -17 -11 -39 -17 -47
-13 -10 3 -13 1 -8 -6 3 -6 -3 -13 -14 -17 -34 -11 -24 -35 15 -35 33 0 35 -2
35 -36 0 -37 22 -45 28 -9 3 12 0 15 -9 10 -8 -5 -10 -4 -5 4 4 6 11 9 16 6
13 -8 20 21 7 34 -8 8 -8 11 1 11 18 0 34 -39 28 -68 -5 -18 -4 -22 2 -13 8
11 10 11 15 0 4 -8 4 -1 1 16 -4 22 -3 26 5 15 8 -12 12 -10 20 10 7 19 10 20
10 7 1 -10 -4 -27 -9 -38 -7 -13 -7 -19 0 -19 5 0 10 5 10 12 0 9 3 9 12 0 16
-16 55 -15 61 1 4 9 6 9 6 0 1 -9 21 -13 65 -13 58 0 64 2 70 22 12 48 1 162
-14 138 -14 -23 -30 1 -31 48 l-2 47 -6 -40 -7 -40 -7 37 c-4 21 -11 39 -15
42 -12 7 -8 -98 3 -109 6 -5 9 -9 7 -8 -9 4 -51 -50 -46 -58 5 -9 -9 -13 -34
-10 -10 2 -12 -5 -7 -21 4 -16 3 -19 -3 -10 -7 11 -11 8 -16 -10 -5 -19 -8
-20 -16 -8 -5 8 -9 22 -9 30 0 10 3 9 8 -4 7 -18 8 -18 14 -2 8 22 -2 96 -14
96 -11 0 -29 68 -22 86 3 8 11 14 19 14 21 0 73 77 67 100 -7 27 -13 25 -13
-4z m130 -205 c0 -5 -7 -12 -16 -15 -14 -5 -15 -4 -4 9 14 17 20 19 20 6z
m-43 -28 c1 -10 4 -35 6 -56 3 -21 3 -36 0 -33 -8 8 -22 90 -17 98 7 12 10 10
11 -9z m-36 -35 c-3 -21 -6 -26 -9 -15 -3 17 3 47 11 47 2 0 1 -15 -2 -32z
m89 8 c0 -8 -8 -20 -17 -27 -16 -13 -17 -12 -4 3 7 10 11 25 7 33 -3 9 -2 13
4 10 6 -3 10 -12 10 -19z"/>
<path d="M1871 310 c0 -30 4 -62 9 -70 8 -12 10 -11 10 6 0 23 26 51 37 40 3
-3 1 -18 -6 -32 -6 -15 -9 -29 -7 -32 8 -8 27 50 22 65 -3 7 -10 13 -16 13 -7
0 -9 8 -5 19 8 25 -10 37 -20 13 -7 -15 -9 -14 -15 8 -6 19 -8 11 -9 -30z"/>
<path d="M108 343 c7 -3 16 -2 19 1 4 3 -2 6 -13 5 -11 0 -14 -3 -6 -6z"/>
<path d="M2710 330 c-6 -12 -9 -24 -7 -27 3 -2 11 5 17 17 6 12 9 24 7 27 -3
2 -11 -5 -17 -17z"/>
<path d="M2643 323 c-3 -10 -8 -22 -11 -27 -3 -5 0 -6 6 -2 18 11 35 46 22 46
-6 0 -13 -8 -17 -17z"/>
<path d="M276 319 c3 -5 12 -9 21 -9 19 0 9 13 -12 16 -8 1 -13 -2 -9 -7z"/>
<path d="M330 320 c-8 -5 -12 -12 -9 -15 4 -3 12 1 19 10 14 17 11 19 -10 5z"/>
<path d="M830 310 c-8 -5 -12 -11 -10 -14 3 -2 14 2 24 10 22 15 10 19 -14 4z"/>
<path d="M344 299 c-4 -7 -3 -9 4 -5 5 3 12 0 15 -6 2 -7 7 -10 11 -7 4 3 0
12 -8 18 -11 9 -16 9 -22 0z"/>
<path d="M390 284 c0 -8 5 -12 10 -9 6 3 10 10 10 16 0 5 -4 9 -10 9 -5 0 -10
-7 -10 -16z"/>
<path d="M1950 284 c0 -8 5 -12 10 -9 6 4 8 11 5 16 -9 14 -15 11 -15 -7z"/>
<path d="M2250 284 c0 -10 5 -26 10 -34 8 -11 9 -7 4 15 -8 37 -14 45 -14 19z"/>
<path d="M1431 244 c0 -11 3 -14 6 -6 3 7 2 16 -1 19 -3 4 -6 -2 -5 -13z"/>
<path d="M1610 239 c0 -5 5 -7 10 -4 6 3 10 8 10 11 0 2 -4 4 -10 4 -5 0 -10
-5 -10 -11z"/>
<path d="M1435 201 c-3 -5 -1 -12 5 -16 5 -3 10 1 10 9 0 18 -6 21 -15 7z"/>
<path d="M1550 175 c0 -5 5 -17 10 -25 5 -8 10 -10 10 -5 0 6 -5 17 -10 25 -5
8 -10 11 -10 5z"/>
<path d="M1858 143 c-20 -5 -25 -48 -7 -58 5 -4 21 -4 34 -1 20 5 22 10 16 33
-8 28 -16 33 -43 26z"/>
<path d="M380 106 c0 -11 10 -16 32 -16 34 0 29 13 -9 25 -17 5 -23 2 -23 -9z"/>
<path d="M1581 115 c-8 -37 -8 -43 5 -41 7 1 17 6 21 11 4 4 3 5 -4 1 -7 -4
-13 2 -16 16 -2 13 -5 19 -6 13z"/>
<path d="M1536 80 c-18 -19 -18 -19 3 -17 13 1 21 8 21 19 0 22 0 22 -24 -2z"/>
<path d="M2468 83 c-19 -22 -32 -56 -18 -48 10 6 43 65 37 65 -2 0 -11 -8 -19
-17z"/>
<path d="M1389 59 c-9 -17 -7 -24 9 -39 19 -18 21 -18 36 -1 9 10 16 24 15 32
0 8 -4 4 -9 -8 -5 -13 -13 -23 -17 -23 -18 0 -35 19 -28 29 5 9 10 9 20 1 11
-9 12 -7 8 9 -7 27 -19 27 -34 0z"/>
<path d="M1488 51 c5 -23 6 -24 13 -6 11 29 11 32 -4 32 -9 0 -12 -9 -9 -26z"/>
<path d="M2061 64 c0 -11 3 -14 6 -6 3 7 2 16 -1 19 -3 4 -6 -2 -5 -13z"/>
<path d="M1300 67 c0 -14 31 -69 36 -64 3 3 -4 20 -15 38 -12 19 -21 30 -21
26z"/>
<path d="M1273 3 c9 -2 23 -2 30 0 6 3 -1 5 -18 5 -16 0 -22 -2 -12 -5z"/>
</g>
</svg>
